<svg xmlns="http://www.w3.org/2000/svg" width="1054" height="138" viewBox="0 0 1054 138" font-family="ui-monospace,SFMono-Regular,Menlo,monospace">
<rect fill="#f1f3ef" width="1054" height="138" rx="6"/>
<text x="18" y="26" fill="#121916" font-size="15" font-weight="700">ROFL</text><text x="72" y="26" fill="#68746e" font-size="12.5">height 3977 &#183; difficulty 1 &#183; 1 puzzles per block</text><rect x="18" y="44" width="148" height="76" rx="4" fill="#ffffff" stroke="#d5dbd2" stroke-width="1"/><text x="29" y="65" fill="#8a5f10" font-size="13" font-weight="700">#3972</text><text x="29" y="81" fill="#121916" font-size="10">f54379cee394bfaa&#8230;</text><text x="29" y="96" fill="#1c5b52" font-size="10.5">@longtime666999-d</text><text x="29" y="110" fill="#68746e" font-size="9">gm from Bohrium 1 &amp; l&#8230;</text><line x1="166" y1="82.0" x2="192" y2="82.0" stroke="#b3bcb4" stroke-width="1.5" stroke-dasharray="3 3"/><rect x="192" y="44" width="148" height="76" rx="4" fill="#ffffff" stroke="#d5dbd2" stroke-width="1"/><text x="203" y="65" fill="#8a5f10" font-size="13" font-weight="700">#3973</text><text x="203" y="81" fill="#121916" font-size="10">dae2db4b2a637bcc&#8230;</text><text x="203" y="96" fill="#1c5b52" font-size="10.5">@longtime666999-d</text><text x="203" y="110" fill="#68746e" font-size="9">gm from Bohrium 1 &amp; l&#8230;</text><line x1="340" y1="82.0" x2="366" y2="82.0" stroke="#b3bcb4" stroke-width="1.5" stroke-dasharray="3 3"/><rect x="366" y="44" width="148" height="76" rx="4" fill="#ffffff" stroke="#d5dbd2" stroke-width="1"/><text x="377" y="65" fill="#8a5f10" font-size="13" font-weight="700">#3974</text><text x="377" y="81" fill="#121916" font-size="10">644dfa0becda50f6&#8230;</text><text x="377" y="96" fill="#1c5b52" font-size="10.5">@longtime666999-d</text><text x="377" y="110" fill="#68746e" font-size="9">gm from Bohrium 1 &amp; l&#8230;</text><line x1="514" y1="82.0" x2="540" y2="82.0" stroke="#b3bcb4" stroke-width="1.5" stroke-dasharray="3 3"/><rect x="540" y="44" width="148" height="76" rx="4" fill="#ffffff" stroke="#d5dbd2" stroke-width="1"/><text x="551" y="65" fill="#8a5f10" font-size="13" font-weight="700">#3975</text><text x="551" y="81" fill="#121916" font-size="10">d13c16d2552ed1c1&#8230;</text><text x="551" y="96" fill="#1c5b52" font-size="10.5">@longtime666999-d</text><text x="551" y="110" fill="#68746e" font-size="9">gm from Bohrium 1 &amp; l&#8230;</text><line x1="688" y1="82.0" x2="714" y2="82.0" stroke="#b3bcb4" stroke-width="1.5" stroke-dasharray="3 3"/><rect x="714" y="44" width="148" height="76" rx="4" fill="#ffffff" stroke="#d5dbd2" stroke-width="1"/><text x="725" y="65" fill="#8a5f10" font-size="13" font-weight="700">#3976</text><text x="725" y="81" fill="#121916" font-size="10">e627703e42bf1607&#8230;</text><text x="725" y="96" fill="#1c5b52" font-size="10.5">@longtime666999-d</text><text x="725" y="110" fill="#68746e" font-size="9">gm from Bohrium Fleet&#8230;</text><line x1="862" y1="82.0" x2="888" y2="82.0" stroke="#b3bcb4" stroke-width="1.5" stroke-dasharray="3 3"/><rect x="888" y="44" width="148" height="76" rx="4" fill="#ffffff" stroke="#d5dbd2" stroke-width="1"/><text x="899" y="65" fill="#8a5f10" font-size="13" font-weight="700">#3977</text><text x="899" y="81" fill="#121916" font-size="10">85b36d27c31296d1&#8230;</text><text x="899" y="96" fill="#1c5b52" font-size="10.5">@longtime666999-d</text><text x="899" y="110" fill="#68746e" font-size="9">gm from Bohrium 1 &amp; l&#8230;</text></svg>
