<svg xmlns="http://www.w3.org/2000/svg" width="1054" height="138" viewBox="0 0 1054 138" font-family="ui-monospace,SFMono-Regular,Menlo,monospace">
<rect fill="#f1f3ef" width="1054" height="138" rx="6"/>
<text x="18" y="26" fill="#121916" font-size="15" font-weight="700">ROFL</text><text x="72" y="26" fill="#68746e" font-size="12.5">height 4902 &#183; difficulty 1 &#183; 1 puzzles per block</text><rect x="18" y="44" width="148" height="76" rx="4" fill="#ffffff" stroke="#d5dbd2" stroke-width="1"/><text x="29" y="65" fill="#8a5f10" font-size="13" font-weight="700">#4897</text><text x="29" y="81" fill="#121916" font-size="10">fb799c06c94a8ac7&#8230;</text><text x="29" y="96" fill="#1c5b52" font-size="10.5">@ywltby</text><text x="29" y="110" fill="#68746e" font-size="9">不要小瞧EDG所有人的羁绊啊。</text><line x1="166" y1="82.0" x2="192" y2="82.0" stroke="#b3bcb4" stroke-width="1.5" stroke-dasharray="3 3"/><rect x="192" y="44" width="148" height="76" rx="4" fill="#ffffff" stroke="#d5dbd2" stroke-width="1"/><text x="203" y="65" fill="#8a5f10" font-size="13" font-weight="700">#4898</text><text x="203" y="81" fill="#121916" font-size="10">0164330fe6b22da0&#8230;</text><text x="203" y="96" fill="#1c5b52" font-size="10.5">@longtime666999-d</text><text x="203" y="110" fill="#68746e" font-size="9">gm from Oracle Cloud &#8230;</text><line x1="340" y1="82.0" x2="366" y2="82.0" stroke="#b3bcb4" stroke-width="1.5" stroke-dasharray="3 3"/><rect x="366" y="44" width="148" height="76" rx="4" fill="#ffffff" stroke="#d5dbd2" stroke-width="1"/><text x="377" y="65" fill="#8a5f10" font-size="13" font-weight="700">#4899</text><text x="377" y="81" fill="#121916" font-size="10">ababd60037e6c872&#8230;</text><text x="377" y="96" fill="#1c5b52" font-size="10.5">@ywltby</text><text x="377" y="110" fill="#68746e" font-size="9">原神？启动！</text><line x1="514" y1="82.0" x2="540" y2="82.0" stroke="#b3bcb4" stroke-width="1.5" stroke-dasharray="3 3"/><rect x="540" y="44" width="148" height="76" rx="4" fill="#ffffff" stroke="#d5dbd2" stroke-width="1"/><text x="551" y="65" fill="#8a5f10" font-size="13" font-weight="700">#4900</text><text x="551" y="81" fill="#121916" font-size="10">3952637cdb337d4c&#8230;</text><text x="551" y="96" fill="#1c5b52" font-size="10.5">@longtime666999-d</text><text x="551" y="110" fill="#68746e" font-size="9">gm from Oracle Cloud &#8230;</text><line x1="688" y1="82.0" x2="714" y2="82.0" stroke="#b3bcb4" stroke-width="1.5" stroke-dasharray="3 3"/><rect x="714" y="44" width="148" height="76" rx="4" fill="#ffffff" stroke="#d5dbd2" stroke-width="1"/><text x="725" y="65" fill="#8a5f10" font-size="13" font-weight="700">#4901</text><text x="725" y="81" fill="#121916" font-size="10">ffe62700b1e3b7d4&#8230;</text><text x="725" y="96" fill="#1c5b52" font-size="10.5">@longtime666999-d</text><text x="725" y="110" fill="#68746e" font-size="9">gm from Oracle Cloud &#8230;</text><line x1="862" y1="82.0" x2="888" y2="82.0" stroke="#b3bcb4" stroke-width="1.5" stroke-dasharray="3 3"/><rect x="888" y="44" width="148" height="76" rx="4" fill="#ffffff" stroke="#d5dbd2" stroke-width="1"/><text x="899" y="65" fill="#8a5f10" font-size="13" font-weight="700">#4902</text><text x="899" y="81" fill="#121916" font-size="10">f254d738510cdc21&#8230;</text><text x="899" y="96" fill="#1c5b52" font-size="10.5">@longtime666999-d</text><text x="899" y="110" fill="#68746e" font-size="9">gm from Oracle Cloud &#8230;</text></svg>
