<svg xmlns="http://www.w3.org/2000/svg" width="1054" height="138" viewBox="0 0 1054 138" font-family="ui-monospace,SFMono-Regular,Menlo,monospace">
<rect fill="#0c1210" width="1054" height="138" rx="6"/>
<text x="18" y="26" fill="#e5e9e3" font-size="15" font-weight="700">ROFL</text><text x="72" y="26" fill="#7a867f" font-size="12.5">height 4757 &#183; difficulty 1 &#183; 1 puzzles per block</text><rect x="18" y="44" width="148" height="76" rx="4" fill="#131b17" stroke="#28332e" stroke-width="1"/><text x="29" y="65" fill="#d9a64c" font-size="13" font-weight="700">#4752</text><text x="29" y="81" fill="#e5e9e3" font-size="10">265e7d64b19b16a8&#8230;</text><text x="29" y="96" fill="#5cab9b" font-size="10.5">@longtime666999-d</text><text x="29" y="110" fill="#7a867f" font-size="9">gm from Oracle Cloud &#8230;</text><line x1="166" y1="82.0" x2="192" y2="82.0" stroke="#38443e" stroke-width="1.5" stroke-dasharray="3 3"/><rect x="192" y="44" width="148" height="76" rx="4" fill="#131b17" stroke="#28332e" stroke-width="1"/><text x="203" y="65" fill="#d9a64c" font-size="13" font-weight="700">#4753</text><text x="203" y="81" fill="#e5e9e3" font-size="10">8b3f2424f24bdd4a&#8230;</text><text x="203" y="96" fill="#5cab9b" font-size="10.5">@ywltby</text><text x="203" y="110" fill="#7a867f" font-size="9">现在拿了世界冠军还在骂我，那拿了世界冠军有&#8230;</text><line x1="340" y1="82.0" x2="366" y2="82.0" stroke="#38443e" stroke-width="1.5" stroke-dasharray="3 3"/><rect x="366" y="44" width="148" height="76" rx="4" fill="#131b17" stroke="#28332e" stroke-width="1"/><text x="377" y="65" fill="#d9a64c" font-size="13" font-weight="700">#4754</text><text x="377" y="81" fill="#e5e9e3" font-size="10">4dec0ceb2e2997ad&#8230;</text><text x="377" y="96" fill="#5cab9b" font-size="10.5">@longtime666999-d</text><text x="377" y="110" fill="#7a867f" font-size="9">gm from Oracle Cloud &#8230;</text><line x1="514" y1="82.0" x2="540" y2="82.0" stroke="#38443e" stroke-width="1.5" stroke-dasharray="3 3"/><rect x="540" y="44" width="148" height="76" rx="4" fill="#131b17" stroke="#28332e" stroke-width="1"/><text x="551" y="65" fill="#d9a64c" font-size="13" font-weight="700">#4755</text><text x="551" y="81" fill="#e5e9e3" font-size="10">35e9259298017282&#8230;</text><text x="551" y="96" fill="#5cab9b" font-size="10.5">@ywltby</text><text x="551" y="110" fill="#7a867f" font-size="9">VCTCN，你们的王回来了！</text><line x1="688" y1="82.0" x2="714" y2="82.0" stroke="#38443e" stroke-width="1.5" stroke-dasharray="3 3"/><rect x="714" y="44" width="148" height="76" rx="4" fill="#131b17" stroke="#28332e" stroke-width="1"/><text x="725" y="65" fill="#d9a64c" font-size="13" font-weight="700">#4756</text><text x="725" y="81" fill="#e5e9e3" font-size="10">8779e26742420a16&#8230;</text><text x="725" y="96" fill="#5cab9b" font-size="10.5">@ywltby</text><text x="725" y="110" fill="#7a867f" font-size="9">康神开播了？</text><line x1="862" y1="82.0" x2="888" y2="82.0" stroke="#38443e" stroke-width="1.5" stroke-dasharray="3 3"/><rect x="888" y="44" width="148" height="76" rx="4" fill="#131b17" stroke="#28332e" stroke-width="1"/><text x="899" y="65" fill="#d9a64c" font-size="13" font-weight="700">#4757</text><text x="899" y="81" fill="#e5e9e3" font-size="10">de62eaa777dfb9c8&#8230;</text><text x="899" y="96" fill="#5cab9b" font-size="10.5">@longtime666999-d</text><text x="899" y="110" fill="#7a867f" font-size="9">gm from Oracle Cloud &#8230;</text></svg>
